# xmcd
#
# Track frame offsets: 
#        150
#        21326
#        47336
#        73096
#        95582
#        111150
#        130383
#        154098
#        176703
#        202520
#        223366
#        245496
#        267761
#        295226
#
# Disc length: 4259 seconds
#
# Revision: 0
# Processed by: cddbd v1.5.2PL0 Copyright (c) Steve Scherf et al.
# Submitted via: ExactAudioCopyFreeDBPlugin 1.0
#
DISCID=cf10a10e
DTITLE=Johnny Guitar Watson - Ain´T That A Bitch and A Real Mother For Y
DTITLE=a
DYEAR=2013
DGENRE=Blues
TTITLE0=I Need It
TTITLE1=I Want To Ta-Ta You Baby
TTITLE2=Superman Lover
TTITLE3=Ain´T That A Bitch
TTITLE4=Since I Met You Baby
TTITLE5=We´Re No Exception
TTITLE6=Won´T You Forgive Me Baby
TTITLE7=A Real Mother For Ya
TTITLE8=Nothing Left To Be Desired
TTITLE9=Your Love Is My Love
TTITLE10=The Real Deal
TTITLE11=Tarzan
TTITLE12=I Wanna Thank You
TTITLE13=Lover Jones
EXTD=
EXTT0=
EXTT1=
EXTT2=
EXTT3=
EXTT4=
EXTT5=
EXTT6=
EXTT7=
EXTT8=
EXTT9=
EXTT10=
EXTT11=
EXTT12=
EXTT13=
PLAYORDER=
